<svg width="792" height="720" viewBox="0 0 792 720" fill="none" xmlns="http://www.w3.org/2000/svg">
<path fill-rule="evenodd" clip-rule="evenodd" d="M115 134H331V417H115V134ZM117 136V415H329V136H117ZM307 158H139V393H307V158ZM729 268H396V442H729V268ZM398 440V270H727V440H398ZM705 292H420V418H705V292Z" fill="url(#paint0_linear)"/>
<path fill-rule="evenodd" clip-rule="evenodd" d="M566 18H564V115H554V121L477 159H554H574H650V196H637.076L631 226H671L664.418 196H652V121H650V158.507L574 121V115H566V18Z" fill="url(#paint1_linear)"/>
<path fill-rule="evenodd" clip-rule="evenodd" d="M125 688C125 682.66 129.17 678.255 134.505 678.005C149.875 677.283 181.687 676 213.5 676C245.313 676 277.125 677.283 292.495 678.005C297.83 678.255 302 682.66 302 688C302 693.34 297.83 697.745 292.495 697.995C277.125 698.717 245.313 700 213.5 700C181.687 700 149.875 698.717 134.505 697.995C129.17 697.745 125 693.34 125 688Z" fill="#2282D6" fill-opacity="0.08"/>
<path fill-rule="evenodd" clip-rule="evenodd" d="M434.589 591C434.589 585.683 438.752 581.32 444.065 581.136C463.768 580.453 511.288 579 558.809 579C606.329 579 653.85 580.453 673.553 581.136C678.866 581.32 683.029 585.683 683.029 591C683.029 596.317 678.866 600.68 673.553 600.864C653.85 601.547 606.329 603 558.809 603C511.288 603 463.768 601.547 444.065 600.864C438.752 600.68 434.589 596.317 434.589 591Z" fill="#2282D6" fill-opacity="0.08"/>
<path fill-rule="evenodd" clip-rule="evenodd" d="M609.705 385.191C619.719 385.191 627.837 393.263 627.837 403.22V420.829C627.837 430.786 619.719 438.857 609.705 438.857H608.019C607.688 438.857 607.359 438.848 607.032 438.831C609.873 449.478 612.344 460.267 611.715 471.14H587.258C583.453 467.444 587.064 417.178 589.951 401.698C590.728 392.453 598.52 385.191 608.019 385.191H609.705Z" fill="#14181E"/>
<path fill-rule="evenodd" clip-rule="evenodd" d="M608.494 425.645C603.033 428.918 597.668 430.499 595.149 429.854C588.833 428.235 588.252 405.261 593.139 396.204C598.026 387.147 623.149 383.199 624.415 401.144C624.855 407.372 622.225 412.93 618.339 417.466L625.307 449.757H605.067L608.494 425.645Z" fill="#FFDCBF"/>
<path fill-rule="evenodd" clip-rule="evenodd" d="M627.093 401.249C626.506 400.671 625.937 400.112 625.373 399.612L625.4 398.96C625.4 398.96 619.048 386.029 609.282 386.029C599.525 386.029 596.439 390.539 593.816 394.373L593.809 394.384C595.181 399.064 599.316 400.958 603.992 403.1C606.005 404.022 608.119 404.99 610.155 406.246C610.953 405.601 611.97 405.215 613.078 405.215C615.64 405.215 617.716 407.28 617.716 409.827C617.716 412.092 616.074 413.976 613.908 414.365C613.446 434.295 615.768 469.276 618.981 472.398H643.438C644.156 459.994 639.759 447.237 635.437 434.7C631.557 423.444 627.738 412.365 627.738 401.88C627.52 401.668 627.305 401.457 627.093 401.249L627.093 401.249Z" fill="#14181E"/>
<path fill-rule="evenodd" clip-rule="evenodd" d="M619.572 564.431L615.011 577.085C622.613 578.008 631.261 585.857 631.261 585.857C646.243 582.678 665.142 587.563 665.142 587.563L665.936 581.513L638.256 569.68L622.109 562.777L619.572 564.431Z" fill="#14181E"/>
<path fill-rule="evenodd" clip-rule="evenodd" d="M547.702 519.868C545.766 531.065 540.239 552.487 532.072 577.285L521.541 575.422C524.547 520.061 528.056 483.245 531.12 471.825C533.144 464.28 554.517 462.837 553.656 477.673C553.295 483.895 551.016 500.696 547.702 519.868ZM562.737 564.778C579.824 565.447 614.977 570.172 625.4 572.397C628.213 572.998 629.776 573.031 630.685 573.818C631.893 574.863 631.948 577.239 632.254 584.041C631.345 584.067 627.74 584.259 622.348 584.547C605.036 585.472 569.302 587.38 545.226 587.906C532.548 588.184 535.348 564.021 548.612 564.334C553.075 564.439 557.827 564.586 562.737 564.778Z" fill="#FFD1AB"/>
<path fill-rule="evenodd" clip-rule="evenodd" d="M625.882 520.27C636.09 535.644 637.267 546.683 637.267 546.683L614.918 556.327L595.1 560.95L575.282 530.332L557.764 514.039C556.179 519.094 554.318 524.034 552.462 528.959C548.504 539.463 544.572 549.898 543.411 561.218L523.493 561.489C523.823 559.957 523.652 553.317 523.42 544.239C522.833 521.349 521.848 482.956 527.483 471.841C527.599 471.613 527.732 471.389 527.881 471.17C529.331 466.9 533.802 463.348 543.275 461.579C554.601 459.463 608.483 494.065 625.882 520.27Z" fill="#DFE4EA"/>
<path fill-rule="evenodd" clip-rule="evenodd" d="M517.954 585.501C516.773 585.377 515.836 585.159 515.179 584.835C506.927 580.778 501.632 558.402 515.676 552.399C535.944 543.736 606.063 517.754 618.292 517.754C630.52 517.754 633.893 526.978 633.893 526.978C649.631 550.805 632.675 563.433 611.925 569.376L619.436 570.792L616.632 586.989C612.815 586.514 607.034 587.263 599.494 588.24C581.49 590.573 553.452 594.205 518.158 585.581C518.084 585.562 518.016 585.536 517.954 585.501Z" fill="#DB3624"/>
<path fill-rule="evenodd" clip-rule="evenodd" d="M522.696 429.205L553.872 441.063L544.741 453.944L521.024 437.619C509.505 436.084 504.122 434.547 504.875 433.01C505.51 431.714 506.805 431.58 507.997 431.457C508.926 431.361 509.792 431.272 510.237 430.644C511.253 429.211 508.366 425.073 505.458 421.263C502.55 417.452 505.1 417.472 506.612 417.872C511.727 420.387 517.088 424.165 522.696 429.205ZM545.295 532.296L573.571 514.685L578.421 529.707L551.046 538.699C542.883 546.923 538.411 550.272 537.63 548.746C536.971 547.46 537.643 546.351 538.261 545.33C538.743 544.535 539.192 543.792 538.956 543.06C538.416 541.389 533.357 541.186 528.548 541.198C523.739 541.21 525.289 539.196 526.519 538.236C531.616 535.691 537.875 533.711 545.295 532.296Z" fill="#FFDCBF"/>
<path fill-rule="evenodd" clip-rule="evenodd" d="M612.311 431.311C581.588 435.385 564.202 439.862 528.583 427.756L524.751 444.759C555.144 465 579.779 468.503 605.909 460.66C612.467 458.691 616.502 452.58 615.608 444.759L612.311 431.311Z" fill="#2857B5"/>
<path fill-rule="evenodd" clip-rule="evenodd" d="M645.546 521.871H580.609C580.609 521.871 602.673 454.964 603.151 430.029C603.168 429.181 604.742 427.688 605.438 427.884C613.078 430.029 621.788 426.279 621.788 426.279C637.182 450.897 642.506 481.207 645.546 521.871Z" fill="white"/>
<path fill-rule="evenodd" clip-rule="evenodd" d="M618.216 542.504H652.84C658.339 505.758 643.887 454.809 630.488 429.111C629.976 428.129 628.887 426.279 626.321 426.279H616.26C609.305 447.103 603.909 467.899 601.158 486.023C588.532 498.426 572.074 512.789 549.789 524.145L559.148 538.917C573.962 535.606 588.251 531.646 600.937 526.492C603.521 536.53 609.019 542.504 618.216 542.504Z" fill="#4071D5"/>
<path fill-rule="evenodd" clip-rule="evenodd" d="M353.607 444.358C353.607 448.776 357.189 452.358 361.607 452.358H502.5C506.919 452.358 510.5 448.776 510.5 444.358V411.107C510.5 406.689 506.919 403.107 502.5 403.107H361.607C357.189 403.107 353.607 406.689 353.607 411.107V444.358Z" fill="#8CACE6"/>
<path fill-rule="evenodd" clip-rule="evenodd" d="M364.019 412.729H381.189C382.814 412.729 384.136 414.057 384.136 415.69V426.734L379.537 421.389C379.217 420.997 378.745 420.758 378.241 420.732C377.733 420.706 377.236 420.898 376.876 421.26L370.66 427.517L368.336 425.578C367.663 425.017 366.692 425.022 366.025 425.589L361.072 429.723V415.69C361.072 414.057 362.394 412.729 364.019 412.729ZM378.49 422.597L378.495 422.603L378.504 422.613L384.136 428.943V432.929C384.136 434.508 382.814 435.792 381.189 435.792H364.019C362.394 435.792 361.072 434.508 361.072 432.929V431.529L366.896 426.83L366.902 426.825C367.065 426.691 367.303 426.689 367.468 426.822L370.268 429.082C370.538 429.299 370.935 429.282 371.183 429.04L377.838 422.565C377.958 422.448 378.098 422.436 378.171 422.44C378.244 422.444 378.383 422.469 378.49 422.597ZM368.333 422.164C366.526 422.164 365.057 420.687 365.057 418.872C365.057 417.057 366.527 415.58 368.333 415.58C370.139 415.58 371.608 417.057 371.608 418.872C371.608 420.687 370.139 422.164 368.333 422.164ZM366.535 418.798C366.535 417.794 367.352 416.977 368.356 416.977C369.36 416.977 370.176 417.794 370.176 418.798C370.176 419.802 369.36 420.619 368.356 420.619C367.352 420.619 366.535 419.802 366.535 418.798Z" fill="white"/>
<path fill-rule="evenodd" clip-rule="evenodd" d="M387.992 417.98H442.17V412.518H387.992V417.98Z" fill="white"/>
<path fill-rule="evenodd" clip-rule="evenodd" d="M387.992 425.179H496.347V422.229H387.992V425.179ZM485.65 431.837H387.992V428.905H485.649L485.65 431.837ZM493.544 438.519H387.992V435.581H493.544V438.519Z" fill="white" fill-opacity="0.6" style="mix-blend-mode:screen"/>
<path d="M508.503 431.396C509.88 431.184 510.503 430.355 510.503 429.975V435.851C508.594 435.57 504.744 434.661 504.81 433.284C504.893 431.561 506.781 431.661 508.503 431.396Z" fill="#FFDCBF"/>
<path fill-rule="evenodd" clip-rule="evenodd" d="M572.134 590.151L572.187 590.062L572.134 587.43H455.311V590.151L455.612 590.642C457.116 592.932 459.806 593.34 462.888 593.34H564.554C567.64 593.34 570.332 592.932 571.833 590.642L572.134 590.151Z" fill="#C0C8D5"/>
<path fill-rule="evenodd" clip-rule="evenodd" d="M543.717 591.3V591.381L544.02 591.829C544.504 592.493 545.114 592.983 545.814 593.341H564.487C567.596 593.341 570.319 592.97 571.835 590.888L572.138 590.439L572.187 590.362L572.157 588.908H543.717V591.3Z" fill="#A0ADC0"/>
<path fill-rule="evenodd" clip-rule="evenodd" d="M528.732 591.863H471.793V588.908H528.732V591.863Z" fill="#DFE4EA"/>
<path fill-rule="evenodd" clip-rule="evenodd" d="M544.12 588.103L528.871 531.691C528.466 530.204 526.908 529 525.385 529H442.853C441.332 529 440.424 530.204 440.826 531.691L456.077 588.103H544.12Z" fill="#C0C8D5"/>
<path fill-rule="evenodd" clip-rule="evenodd" d="M495.569 558.617C496.413 561.475 494.506 563.79 491.306 563.79C488.105 563.79 484.824 561.475 483.98 558.617C483.139 555.76 485.049 553.447 488.249 553.447C491.45 553.447 494.727 555.76 495.569 558.617Z" fill="#F7F9FA"/>
<path fill-rule="evenodd" clip-rule="evenodd" d="M218.582 397.12C224.021 400.409 229.366 401.998 231.875 401.349C238.166 399.723 238.744 376.634 233.876 367.531C229.009 358.429 203.985 354.462 202.724 372.496C202.286 378.756 204.906 384.342 208.776 388.9L201.836 421.353H221.996L218.582 397.12Z" fill="#A1040F"/>
<path d="M193.934 366.492C193.282 365.845 192.927 364.921 192.62 364.043C192.301 363.132 191.991 362.211 191.779 361.262C191.356 359.367 191.352 357.187 192.7 355.715C193.78 354.535 195.402 354.006 196.899 353.891C197.897 353.814 198.921 353.954 199.877 354.269C200.825 354.582 201.643 355.205 202.562 355.592C202.598 353.55 202.946 351.412 203.979 349.668C204.973 347.99 206.558 347.048 208.363 346.799C210.215 346.544 212.044 346.979 213.703 347.878C214.118 348.104 214.529 348.34 214.923 348.607C215.252 348.831 215.595 349.1 215.982 349.191C216.406 349.291 216.62 349.05 216.894 348.741L216.907 348.727C217.235 348.357 217.605 348.031 217.997 347.742C219.729 346.465 222.001 345.94 224.008 346.706C224.932 347.058 225.831 347.657 226.458 348.483C227.017 349.219 227.416 350.386 228.188 350.898C228.515 351.116 228.746 350.828 229.045 350.614C229.492 350.294 229.919 349.941 230.373 349.63C231.009 349.192 231.699 348.865 232.437 348.693C233.517 348.443 235.01 348.501 235.319 349.921C235.435 350.455 235.346 351.025 235.309 351.562C235.258 352.3 235.204 353.038 235.14 353.774C235.092 354.334 235.03 354.874 234.925 355.424C234.869 355.716 234.693 356.262 234.818 356.555C234.975 356.922 235.697 356.714 236.005 356.726C236.614 356.752 237.226 356.859 237.789 357.12C238.226 357.322 238.685 357.62 238.869 358.122C238.982 358.43 238.952 358.747 238.899 359.064C238.835 359.445 238.908 359.647 238.956 360.031C239.774 359.627 242.609 358.729 242.966 360.2C243.085 360.69 242.814 361.243 242.608 361.656C242.246 362.381 241.772 363.043 241.287 363.674C240.275 364.992 239.067 366.128 237.767 367.1C239.29 367.779 239.687 369.782 238.369 370.976C237.787 371.503 237.004 371.62 236.27 371.586C236.001 371.574 235.614 371.47 235.402 371.517C235.288 371.543 235.167 371.639 235.009 371.65C233.973 371.721 232.803 371.471 231.79 371.24C229.985 370.829 228.276 369.971 226.881 368.665C226.523 368.329 226.227 368.137 225.745 368.141C225.323 368.146 224.909 368.262 224.487 368.273C223.371 368.301 222.364 367.754 221.328 367.389C221.264 368.794 220.866 370.341 220.293 371.605C219.826 372.635 219.475 372.474 219.055 372.895C218.635 373.036 217.795 373.485 217.795 374.159C217.795 375.002 217.982 375.848 217.413 376.472C216.476 377.499 215.779 378.772 215.296 380.113C213.843 378.213 211.274 376.961 208.999 377.544C206.485 378.189 204.714 381.6 206.322 384.053C207.255 385.476 208.941 386.026 210.344 386.638C209.249 387.779 208.985 389.464 208.326 390.884C208.001 391.585 207.545 392.376 206.819 392.62C206.55 392.711 206.235 392.718 206.023 392.938C205.761 393.21 205.698 393.514 205.363 393.748C204.024 394.682 201.934 394.61 200.748 393.392C199.675 392.29 199.954 390.547 200.85 389.43C199.424 388.833 196.825 388.066 197.392 385.837C194.302 385.631 186.799 380.603 190.946 376.929C188.67 375.638 186.579 372.484 188.041 369.704C189.167 367.563 191.785 366.606 193.934 366.492Z" fill="#14181E"/>
<path fill-rule="evenodd" clip-rule="evenodd" d="M230.086 597.673L199.316 491.299H240.384L259.084 677.541H244.558L230.086 597.673ZM197.389 601.294C195.527 615.756 192.036 642.871 181.256 683.779L168.498 675.66C175.16 632.304 174.72 608.067 174.481 594.892C174.385 589.558 174.321 586.037 174.775 583.795L199.472 589.265C198.756 590.681 198.244 594.654 197.389 601.294Z" fill="#FFDCBF"/>
<path fill-rule="evenodd" clip-rule="evenodd" d="M198.655 491.299C206.659 527.903 220.502 586.331 240.184 666.585H261.431C263 584.212 252.964 529.997 241.404 491.299H198.655Z" fill="#28303B"/>
<path fill-rule="evenodd" clip-rule="evenodd" d="M178.593 491.346C173.553 550.86 166.833 601.618 166.833 667.447H189.501C195.683 635.046 202.958 612.362 210.45 571.836C213.166 549.745 219.246 515.003 224.587 491.346L178.593 491.346Z" fill="#28303B"/>
<path fill-rule="evenodd" clip-rule="evenodd" d="M185.876 690.181L185.042 676.697C177.721 678.845 166.702 675.012 166.702 675.012C154.251 683.86 135.024 686.81 135.024 686.81L136.692 692.709H166.702H184.209L185.876 690.181Z" fill="#14181E"/>
<path fill-rule="evenodd" clip-rule="evenodd" d="M241.315 690.181L242.149 676.697C249.47 678.845 260.489 675.012 260.489 675.012C272.941 683.86 292.167 686.81 292.167 686.81L290.5 692.709H260.489H242.983L241.315 690.181Z" fill="#14181E"/>
<path fill-rule="evenodd" clip-rule="evenodd" d="M325.168 459.605L321.269 462.215L315.857 458.105L317.279 456.22C322.455 445.812 325.693 441.126 326.992 442.162C328.088 443.036 327.812 444.272 327.559 445.41C327.361 446.297 327.177 447.125 327.664 447.676C328.777 448.934 333.828 447.141 338.558 445.256C343.289 443.371 342.463 445.745 341.585 447.068C337.453 451.292 331.98 455.47 325.168 459.605ZM144.205 544.222L145.563 539.98L152.542 540.379L152.662 542.685C155.432 553.962 155.962 559.533 154.254 559.397C152.813 559.282 152.217 558.128 151.667 557.064C151.239 556.236 150.839 555.462 150.092 555.279C148.384 554.861 145.578 559.066 143.086 563.17C140.593 567.274 139.682 564.895 139.503 563.342C139.983 557.662 141.55 551.288 144.205 544.222Z" fill="#FFDCBF"/>
<path d="M231.819 405.34C237.355 405.34 241.842 409.49 241.842 414.61C241.842 416.551 241.197 418.353 240.094 419.842C241.361 420.38 242.446 420.932 243.143 421.464C251.963 428.206 262.8 439.891 273.734 466.016C277.047 472.758 282.38 464.573 315.183 456.146C316.243 457.017 317.393 458 317.927 458.431C319.459 459.67 319.667 459.839 323.384 463.182C318.752 466.651 312.152 471.476 308.083 474.652C283.341 493.97 268.358 505.668 255.055 482.87C252.78 478.973 250.477 475.072 248.202 471.233C250.5 490.687 256.669 518.686 252.435 524.164C248.202 529.641 233.186 528.377 229.086 524.164C224.986 519.95 224.986 509.416 224.986 509.416H198.106C198.106 509.416 197.194 520.793 193.55 524.164C189.905 527.535 177.261 526.271 175.995 524.164C174.73 522.057 175.33 520.876 175.326 518.686L175.995 515.315C175.977 505.028 175.947 495.072 176.285 482.572C175.733 484.144 175.212 485.726 174.73 487.316C171.258 503.833 155.333 541.703 155.333 541.703H142.103C142.103 541.703 140.85 504.28 147.99 479.499C155.13 454.719 176.33 425.355 182.16 420.93C182.921 420.352 184.631 419.896 185.891 419.419C184.969 418.017 184.438 416.371 184.438 414.61C184.438 409.49 188.925 405.34 194.461 405.34H231.819Z" fill="#658DDD"/>
<path d="M224.985 509.416L222.252 405.34H205.395L198.105 509.416H224.985Z" fill="white"/>
<path fill-rule="evenodd" clip-rule="evenodd" d="M231.644 182.029C231.644 175.385 237.029 170 243.672 170H463.564C470.207 170 475.593 175.385 475.593 182.029V331.548C475.593 338.191 470.207 343.577 463.564 343.577H308.05C308.05 343.577 299.216 355.847 288.327 361.777C277.439 367.706 262.393 368.441 262.393 368.441C262.393 368.441 269.529 361.124 272.828 355.836C276.126 350.547 277.9 343.577 277.9 343.577H243.672C237.029 343.577 231.644 338.191 231.644 331.548V182.029Z" fill="#8CACE6"/>
<path fill-rule="evenodd" clip-rule="evenodd" d="M263.719 212.221C272.111 212.221 278.914 205.605 278.914 197.444C278.914 189.282 272.111 182.666 263.719 182.666C255.328 182.666 248.525 189.282 248.525 197.444C248.525 205.605 255.328 212.221 263.719 212.221ZM285.666 188.577H360.115V194.723H285.666V188.577ZM410.588 199.641H285.666V205.787H410.588V199.641Z" fill="#E6F1FA"/>
<path fill-rule="evenodd" clip-rule="evenodd" d="M250 221H453.432V325.71H250V221Z" fill="white"/>
<path fill-rule="evenodd" clip-rule="evenodd" d="M351.5 278.5C341.924 290.688 341.922 290.687 341.922 290.687L341.858 290.636L341.713 290.521C341.592 290.425 341.421 290.289 341.208 290.119C340.783 289.778 340.186 289.297 339.474 288.712C338.063 287.552 336.138 285.938 334.177 284.187C332.283 282.496 330.051 280.409 328.185 278.343C327.276 277.337 326.127 275.979 325.113 274.421C325.101 274.403 325.089 274.384 325.075 274.364C324.469 273.435 322 269.655 322 264.5C322 255.94 328.94 249 337.5 249C343.676 249 349.009 252.612 351.5 257.84C353.991 252.612 359.324 249 365.5 249C374.06 249 381 255.94 381 264.5C381 269.655 378.531 273.435 377.925 274.364C377.911 274.384 377.899 274.403 377.887 274.421C376.873 275.979 375.724 277.337 374.815 278.343C372.949 280.409 370.717 282.496 368.823 284.187C366.862 285.938 364.937 287.552 363.526 288.712C362.814 289.297 362.217 289.778 361.792 290.119C361.579 290.289 361.408 290.425 361.287 290.521L361.142 290.636L361.078 290.687C361.078 290.687 361.076 290.688 351.5 278.5ZM341.924 290.688L351.5 278.5L361.076 290.688L351.5 298.212L341.924 290.688Z" fill="#DB3624"/>
<defs>
<linearGradient id="paint0_linear" x1="759.108" y1="442" x2="759.108" y2="165.075" gradientUnits="userSpaceOnUse">
<stop stop-color="#D9E3F7" stop-opacity="0"/>
<stop offset="1" stop-color="#D9E3F7"/>
</linearGradient>
<linearGradient id="paint1_linear" x1="498.882" y1="6" x2="498.882" y2="212.201" gradientUnits="userSpaceOnUse">
<stop stop-color="#D9E3F7" stop-opacity="0"/>
<stop offset="1" stop-color="#D9E3F7"/>
</linearGradient>
</defs>
</svg>
