<?xml version="1.0" standalone="no"?>
<!DOCTYPE svg PUBLIC "-//W3C//DTD SVG 1.1//EN" "http://www.w3.org/Graphics/SVG/1.1/DTD/svg11.dtd">
<svg width="136" height="100" version="1.1" xmlns="http://www.w3.org/2000/svg">
	<g id="bars" fill="black" stroke="none">
		<rect x="0" y="0" width="4" height="88" />
		<rect x="6" y="0" width="2" height="88" />
		<rect x="12" y="0" width="6" height="88" />
		<rect x="22" y="0" width="2" height="88" />
		<rect x="26" y="0" width="4" height="88" />
		<rect x="34" y="0" width="6" height="88" />
		<rect x="44" y="0" width="6" height="88" />
		<rect x="52" y="0" width="4" height="88" />
		<rect x="58" y="0" width="6" height="88" />
		<rect x="66" y="0" width="2" height="88" />
		<rect x="70" y="0" width="6" height="88" />
		<rect x="78" y="0" width="4" height="88" />
		<rect x="88" y="0" width="2" height="88" />
		<rect x="92" y="0" width="2" height="88" />
		<rect x="96" y="0" width="8" height="88" />
		<rect x="110" y="0" width="4" height="88" />
		<rect x="120" y="0" width="6" height="88" />
		<rect x="128" y="0" width="2" height="88" />
		<rect x="132" y="0" width="4" height="88" />
		<rect x="136" y="0" width="0" height="88" />
		<rect x="136" y="0" width="0" height="88" />
	<text x="68" text-anchor="middle"  y="100" id="code" fill="black" font-size ="12px" >122345</text>
	</g>
</svg>
