<?xml version="1.0" standalone="no"?>
<!DOCTYPE svg PUBLIC "-//W3C//DTD SVG 1.1//EN" "http://www.w3.org/Graphics/SVG/1.1/DTD/svg11.dtd">
<svg width="158" height="100" version="1.1" xmlns="http://www.w3.org/2000/svg">
	<g id="bars" fill="black" stroke="none">
		<rect x="0" y="0" width="4" height="88" />
		<rect x="6" y="0" width="2" height="88" />
		<rect x="12" y="0" width="6" height="88" />
		<rect x="22" y="0" width="2" height="88" />
		<rect x="26" y="0" width="4" height="88" />
		<rect x="34" y="0" width="6" height="88" />
		<rect x="44" y="0" width="6" height="88" />
		<rect x="52" y="0" width="4" height="88" />
		<rect x="58" y="0" width="6" height="88" />
		<rect x="66" y="0" width="2" height="88" />
		<rect x="70" y="0" width="8" height="88" />
		<rect x="80" y="0" width="6" height="88" />
		<rect x="88" y="0" width="4" height="88" />
		<rect x="96" y="0" width="2" height="88" />
		<rect x="102" y="0" width="6" height="88" />
		<rect x="110" y="0" width="6" height="88" />
		<rect x="120" y="0" width="4" height="88" />
		<rect x="126" y="0" width="2" height="88" />
		<rect x="132" y="0" width="4" height="88" />
		<rect x="142" y="0" width="6" height="88" />
		<rect x="150" y="0" width="2" height="88" />
		<rect x="154" y="0" width="4" height="88" />
		<rect x="158" y="0" width="0" height="88" />
		<rect x="158" y="0" width="0" height="88" />
	<text x="79" text-anchor="middle"  y="100" id="code" fill="black" font-size ="12px" >12234</text>
	</g>
</svg>
