<?xml version="1.0" standalone="no"?>
<!DOCTYPE svg PUBLIC "-//W3C//DTD SVG 1.1//EN" "http://www.w3.org/Graphics/SVG/1.1/DTD/svg11.dtd">
<svg width="664" height="100" version="1.1" xmlns="http://www.w3.org/2000/svg">
	<g id="bars" fill="black" stroke="none">
		<rect x="0" y="0" width="4" height="88" />
		<rect x="6" y="0" width="2" height="88" />
		<rect x="12" y="0" width="2" height="88" />
		<rect x="22" y="0" width="2" height="88" />
		<rect x="28" y="0" width="2" height="88" />
		<rect x="32" y="0" width="4" height="88" />
		<rect x="44" y="0" width="2" height="88" />
		<rect x="48" y="0" width="8" height="88" />
		<rect x="60" y="0" width="2" height="88" />
		<rect x="66" y="0" width="2" height="88" />
		<rect x="76" y="0" width="2" height="88" />
		<rect x="82" y="0" width="4" height="88" />
		<rect x="88" y="0" width="2" height="88" />
		<rect x="94" y="0" width="2" height="88" />
		<rect x="98" y="0" width="4" height="88" />
		<rect x="110" y="0" width="2" height="88" />
		<rect x="114" y="0" width="8" height="88" />
		<rect x="126" y="0" width="2" height="88" />
		<rect x="132" y="0" width="2" height="88" />
		<rect x="142" y="0" width="2" height="88" />
		<rect x="148" y="0" width="4" height="88" />
		<rect x="154" y="0" width="2" height="88" />
		<rect x="160" y="0" width="2" height="88" />
		<rect x="164" y="0" width="4" height="88" />
		<rect x="176" y="0" width="2" height="88" />
		<rect x="180" y="0" width="8" height="88" />
		<rect x="192" y="0" width="2" height="88" />
		<rect x="198" y="0" width="2" height="88" />
		<rect x="208" y="0" width="2" height="88" />
		<rect x="214" y="0" width="4" height="88" />
		<rect x="220" y="0" width="2" height="88" />
		<rect x="226" y="0" width="2" height="88" />
		<rect x="230" y="0" width="4" height="88" />
		<rect x="242" y="0" width="2" height="88" />
		<rect x="246" y="0" width="8" height="88" />
		<rect x="258" y="0" width="2" height="88" />
		<rect x="264" y="0" width="2" height="88" />
		<rect x="274" y="0" width="2" height="88" />
		<rect x="280" y="0" width="4" height="88" />
		<rect x="286" y="0" width="2" height="88" />
		<rect x="292" y="0" width="2" height="88" />
		<rect x="296" y="0" width="4" height="88" />
		<rect x="308" y="0" width="2" height="88" />
		<rect x="312" y="0" width="8" height="88" />
		<rect x="324" y="0" width="2" height="88" />
		<rect x="330" y="0" width="2" height="88" />
		<rect x="340" y="0" width="2" height="88" />
		<rect x="346" y="0" width="4" height="88" />
		<rect x="352" y="0" width="2" height="88" />
		<rect x="358" y="0" width="2" height="88" />
		<rect x="362" y="0" width="4" height="88" />
		<rect x="374" y="0" width="2" height="88" />
		<rect x="378" y="0" width="8" height="88" />
		<rect x="390" y="0" width="2" height="88" />
		<rect x="396" y="0" width="2" height="88" />
		<rect x="406" y="0" width="2" height="88" />
		<rect x="412" y="0" width="4" height="88" />
		<rect x="418" y="0" width="2" height="88" />
		<rect x="424" y="0" width="2" height="88" />
		<rect x="428" y="0" width="4" height="88" />
		<rect x="440" y="0" width="2" height="88" />
		<rect x="444" y="0" width="8" height="88" />
		<rect x="456" y="0" width="2" height="88" />
		<rect x="462" y="0" width="2" height="88" />
		<rect x="472" y="0" width="2" height="88" />
		<rect x="478" y="0" width="4" height="88" />
		<rect x="484" y="0" width="2" height="88" />
		<rect x="490" y="0" width="2" height="88" />
		<rect x="494" y="0" width="4" height="88" />
		<rect x="506" y="0" width="2" height="88" />
		<rect x="510" y="0" width="8" height="88" />
		<rect x="522" y="0" width="2" height="88" />
		<rect x="528" y="0" width="2" height="88" />
		<rect x="538" y="0" width="2" height="88" />
		<rect x="544" y="0" width="4" height="88" />
		<rect x="550" y="0" width="2" height="88" />
		<rect x="556" y="0" width="2" height="88" />
		<rect x="560" y="0" width="4" height="88" />
		<rect x="572" y="0" width="2" height="88" />
		<rect x="576" y="0" width="8" height="88" />
		<rect x="588" y="0" width="2" height="88" />
		<rect x="594" y="0" width="2" height="88" />
		<rect x="604" y="0" width="2" height="88" />
		<rect x="610" y="0" width="4" height="88" />
		<rect x="616" y="0" width="4" height="88" />
		<rect x="622" y="0" width="6" height="88" />
		<rect x="634" y="0" width="2" height="88" />
		<rect x="638" y="0" width="4" height="88" />
		<rect x="648" y="0" width="6" height="88" />
		<rect x="656" y="0" width="2" height="88" />
		<rect x="660" y="0" width="4" height="88" />
		<rect x="664" y="0" width="0" height="88" />
		<rect x="664" y="0" width="0" height="88" />
	<text x="332" text-anchor="middle"  y="100" id="code" fill="black" font-size ="12px" >asdasdasdasdasdasdasdasdasd</text>
	</g>
</svg>
