<?xml version="1.0" standalone="no"?>
<!DOCTYPE svg PUBLIC "-//W3C//DTD SVG 1.1//EN" "http://www.w3.org/Graphics/SVG/1.1/DTD/svg11.dtd">
<svg width="290" height="100" version="1.1" xmlns="http://www.w3.org/2000/svg">
	<g id="bars" fill="black" stroke="none">
		<rect x="0" y="0" width="4" height="88" />
		<rect x="6" y="0" width="2" height="88" />
		<rect x="12" y="0" width="2" height="88" />
		<rect x="22" y="0" width="4" height="88" />
		<rect x="32" y="0" width="2" height="88" />
		<rect x="40" y="0" width="2" height="88" />
		<rect x="44" y="0" width="6" height="88" />
		<rect x="52" y="0" width="6" height="88" />
		<rect x="60" y="0" width="4" height="88" />
		<rect x="66" y="0" width="2" height="88" />
		<rect x="70" y="0" width="6" height="88" />
		<rect x="78" y="0" width="8" height="88" />
		<rect x="88" y="0" width="4" height="88" />
		<rect x="94" y="0" width="4" height="88" />
		<rect x="102" y="0" width="4" height="88" />
		<rect x="110" y="0" width="2" height="88" />
		<rect x="114" y="0" width="4" height="88" />
		<rect x="122" y="0" width="6" height="88" />
		<rect x="132" y="0" width="2" height="88" />
		<rect x="136" y="0" width="8" height="88" />
		<rect x="146" y="0" width="6" height="88" />
		<rect x="154" y="0" width="2" height="88" />
		<rect x="158" y="0" width="8" height="88" />
		<rect x="170" y="0" width="2" height="88" />
		<rect x="176" y="0" width="2" height="88" />
		<rect x="180" y="0" width="8" height="88" />
		<rect x="192" y="0" width="2" height="88" />
		<rect x="198" y="0" width="2" height="88" />
		<rect x="202" y="0" width="8" height="88" />
		<rect x="214" y="0" width="2" height="88" />
		<rect x="220" y="0" width="2" height="88" />
		<rect x="224" y="0" width="8" height="88" />
		<rect x="236" y="0" width="2" height="88" />
		<rect x="242" y="0" width="2" height="88" />
		<rect x="248" y="0" width="2" height="88" />
		<rect x="254" y="0" width="4" height="88" />
		<rect x="264" y="0" width="4" height="88" />
		<rect x="274" y="0" width="6" height="88" />
		<rect x="282" y="0" width="2" height="88" />
		<rect x="286" y="0" width="4" height="88" />
		<rect x="290" y="0" width="0" height="88" />
		<rect x="290" y="0" width="0" height="88" />
	<text x="145" text-anchor="middle"  y="100" id="code" fill="black" font-size ="12px" >IP0012ssss</text>
	</g>
</svg>
