<?xml version="1.0" standalone="no"?>
<!DOCTYPE svg PUBLIC "-//W3C//DTD SVG 1.1//EN" "http://www.w3.org/Graphics/SVG/1.1/DTD/svg11.dtd">
<svg width="444" height="100" version="1.1" xmlns="http://www.w3.org/2000/svg">
	<g id="bars" fill="black" stroke="none">
		<rect x="0" y="0" width="4" height="88" />
		<rect x="6" y="0" width="2" height="88" />
		<rect x="12" y="0" width="2" height="88" />
		<rect x="22" y="0" width="4" height="88" />
		<rect x="32" y="0" width="2" height="88" />
		<rect x="40" y="0" width="2" height="88" />
		<rect x="44" y="0" width="6" height="88" />
		<rect x="52" y="0" width="6" height="88" />
		<rect x="60" y="0" width="4" height="88" />
		<rect x="66" y="0" width="2" height="88" />
		<rect x="72" y="0" width="6" height="88" />
		<rect x="80" y="0" width="4" height="88" />
		<rect x="88" y="0" width="2" height="88" />
		<rect x="94" y="0" width="6" height="88" />
		<rect x="102" y="0" width="4" height="88" />
		<rect x="110" y="0" width="2" height="88" />
		<rect x="116" y="0" width="6" height="88" />
		<rect x="126" y="0" width="4" height="88" />
		<rect x="132" y="0" width="2" height="88" />
		<rect x="136" y="0" width="8" height="88" />
		<rect x="148" y="0" width="2" height="88" />
		<rect x="154" y="0" width="2" height="88" />
		<rect x="164" y="0" width="2" height="88" />
		<rect x="170" y="0" width="4" height="88" />
		<rect x="176" y="0" width="2" height="88" />
		<rect x="182" y="0" width="2" height="88" />
		<rect x="186" y="0" width="4" height="88" />
		<rect x="198" y="0" width="2" height="88" />
		<rect x="202" y="0" width="8" height="88" />
		<rect x="214" y="0" width="2" height="88" />
		<rect x="220" y="0" width="2" height="88" />
		<rect x="226" y="0" width="2" height="88" />
		<rect x="230" y="0" width="4" height="88" />
		<rect x="242" y="0" width="2" height="88" />
		<rect x="246" y="0" width="8" height="88" />
		<rect x="258" y="0" width="2" height="88" />
		<rect x="264" y="0" width="2" height="88" />
		<rect x="274" y="0" width="2" height="88" />
		<rect x="280" y="0" width="4" height="88" />
		<rect x="286" y="0" width="2" height="88" />
		<rect x="292" y="0" width="2" height="88" />
		<rect x="296" y="0" width="4" height="88" />
		<rect x="308" y="0" width="2" height="88" />
		<rect x="312" y="0" width="8" height="88" />
		<rect x="324" y="0" width="2" height="88" />
		<rect x="330" y="0" width="2" height="88" />
		<rect x="340" y="0" width="2" height="88" />
		<rect x="346" y="0" width="4" height="88" />
		<rect x="352" y="0" width="2" height="88" />
		<rect x="358" y="0" width="2" height="88" />
		<rect x="362" y="0" width="4" height="88" />
		<rect x="374" y="0" width="2" height="88" />
		<rect x="378" y="0" width="8" height="88" />
		<rect x="390" y="0" width="2" height="88" />
		<rect x="396" y="0" width="4" height="88" />
		<rect x="402" y="0" width="4" height="88" />
		<rect x="408" y="0" width="4" height="88" />
		<rect x="418" y="0" width="4" height="88" />
		<rect x="428" y="0" width="6" height="88" />
		<rect x="436" y="0" width="2" height="88" />
		<rect x="440" y="0" width="4" height="88" />
		<rect x="444" y="0" width="0" height="88" />
		<rect x="444" y="0" width="0" height="88" />
	<text x="222" text-anchor="middle"  y="100" id="code" fill="black" font-size ="12px" >IP001sdasasdasdas</text>
	</g>
</svg>
