<?xml version="1.0" standalone="no"?>
<!DOCTYPE svg PUBLIC "-//W3C//DTD SVG 1.1//EN" "http://www.w3.org/Graphics/SVG/1.1/DTD/svg11.dtd">
<svg width="202" height="100" version="1.1" xmlns="http://www.w3.org/2000/svg">
	<g id="bars" fill="black" stroke="none">
		<rect x="0" y="0" width="4" height="88" />
		<rect x="6" y="0" width="2" height="88" />
		<rect x="12" y="0" width="2" height="88" />
		<rect x="22" y="0" width="4" height="88" />
		<rect x="32" y="0" width="2" height="88" />
		<rect x="40" y="0" width="2" height="88" />
		<rect x="44" y="0" width="6" height="88" />
		<rect x="52" y="0" width="6" height="88" />
		<rect x="60" y="0" width="4" height="88" />
		<rect x="66" y="0" width="2" height="88" />
		<rect x="72" y="0" width="6" height="88" />
		<rect x="80" y="0" width="4" height="88" />
		<rect x="88" y="0" width="2" height="88" />
		<rect x="94" y="0" width="6" height="88" />
		<rect x="102" y="0" width="4" height="88" />
		<rect x="110" y="0" width="2" height="88" />
		<rect x="116" y="0" width="6" height="88" />
		<rect x="126" y="0" width="4" height="88" />
		<rect x="132" y="0" width="2" height="88" />
		<rect x="136" y="0" width="8" height="88" />
		<rect x="148" y="0" width="2" height="88" />
		<rect x="154" y="0" width="4" height="88" />
		<rect x="162" y="0" width="2" height="88" />
		<rect x="168" y="0" width="2" height="88" />
		<rect x="176" y="0" width="4" height="88" />
		<rect x="186" y="0" width="6" height="88" />
		<rect x="194" y="0" width="2" height="88" />
		<rect x="198" y="0" width="4" height="88" />
		<rect x="202" y="0" width="0" height="88" />
		<rect x="202" y="0" width="0" height="88" />
	<text x="101" text-anchor="middle"  y="100" id="code" fill="black" font-size ="12px" >IP001s</text>
	</g>
</svg>
